<svg width="265" height="48" viewBox="0 0 265 48" fill="none" xmlns="http://www.w3.org/2000/svg">
<rect width="265" height="48" rx="10" fill="#E9B44C"/>
<path d="M70.36 19.06V33H68.54V19.06H70.36ZM78.8019 21.84C80.1352 21.84 81.2152 22.2467 82.0419 23.06C82.8685 23.86 83.2819 25.02 83.2819 26.54V33H81.4819V26.8C81.4819 25.7067 81.2085 24.8733 80.6619 24.3C80.1152 23.7133 79.3685 23.42 78.4219 23.42C77.4619 23.42 76.6952 23.72 76.1219 24.32C75.5619 24.92 75.2819 25.7933 75.2819 26.94V33H73.4619V22.04H75.2819V23.6C75.6419 23.04 76.1285 22.6067 76.7419 22.3C77.3685 21.9933 78.0552 21.84 78.8019 21.84ZM87.1948 20.26C86.8482 20.26 86.5548 20.14 86.3148 19.9C86.0748 19.66 85.9548 19.3667 85.9548 19.02C85.9548 18.6733 86.0748 18.38 86.3148 18.14C86.5548 17.9 86.8482 17.78 87.1948 17.78C87.5282 17.78 87.8082 17.9 88.0348 18.14C88.2748 18.38 88.3948 18.6733 88.3948 19.02C88.3948 19.3667 88.2748 19.66 88.0348 19.9C87.8082 20.14 87.5282 20.26 87.1948 20.26ZM88.0748 22.04V33H86.2548V22.04H88.0748ZM90.4967 27.5C90.4967 26.3667 90.7234 25.38 91.1767 24.54C91.6301 23.6867 92.2567 23.0267 93.0567 22.56C93.8701 22.0933 94.7967 21.86 95.8367 21.86C97.1834 21.86 98.2901 22.1867 99.1567 22.84C100.037 23.4933 100.617 24.4 100.897 25.56H98.9367C98.7501 24.8933 98.3834 24.3667 97.8367 23.98C97.3034 23.5933 96.6367 23.4 95.8367 23.4C94.7967 23.4 93.9567 23.76 93.3167 24.48C92.6767 25.1867 92.3567 26.1933 92.3567 27.5C92.3567 28.82 92.6767 29.84 93.3167 30.56C93.9567 31.28 94.7967 31.64 95.8367 31.64C96.6367 31.64 97.3034 31.4533 97.8367 31.08C98.3701 30.7067 98.7367 30.1733 98.9367 29.48H100.897C100.603 30.6 100.017 31.5 99.1367 32.18C98.2567 32.8467 97.1567 33.18 95.8367 33.18C94.7967 33.18 93.8701 32.9467 93.0567 32.48C92.2567 32.0133 91.6301 31.3533 91.1767 30.5C90.7234 29.6467 90.4967 28.6467 90.4967 27.5ZM104.265 20.26C103.918 20.26 103.625 20.14 103.385 19.9C103.145 19.66 103.025 19.3667 103.025 19.02C103.025 18.6733 103.145 18.38 103.385 18.14C103.625 17.9 103.918 17.78 104.265 17.78C104.598 17.78 104.878 17.9 105.105 18.14C105.345 18.38 105.465 18.6733 105.465 19.02C105.465 19.3667 105.345 19.66 105.105 19.9C104.878 20.14 104.598 20.26 104.265 20.26ZM105.145 22.04V33H103.325V22.04H105.145ZM107.567 27.48C107.567 26.36 107.794 25.38 108.247 24.54C108.7 23.6867 109.32 23.0267 110.107 22.56C110.907 22.0933 111.794 21.86 112.767 21.86C113.727 21.86 114.56 22.0667 115.267 22.48C115.974 22.8933 116.5 23.4133 116.847 24.04V22.04H118.687V33H116.847V30.96C116.487 31.6 115.947 32.1333 115.227 32.56C114.52 32.9733 113.694 33.18 112.747 33.18C111.774 33.18 110.894 32.94 110.107 32.46C109.32 31.98 108.7 31.3067 108.247 30.44C107.794 29.5733 107.567 28.5867 107.567 27.48ZM116.847 27.5C116.847 26.6733 116.68 25.9533 116.347 25.34C116.014 24.7267 115.56 24.26 114.987 23.94C114.427 23.6067 113.807 23.44 113.127 23.44C112.447 23.44 111.827 23.6 111.267 23.92C110.707 24.24 110.26 24.7067 109.927 25.32C109.594 25.9333 109.427 26.6533 109.427 27.48C109.427 28.32 109.594 29.0533 109.927 29.68C110.26 30.2933 110.707 30.7667 111.267 31.1C111.827 31.42 112.447 31.58 113.127 31.58C113.807 31.58 114.427 31.42 114.987 31.1C115.56 30.7667 116.014 30.2933 116.347 29.68C116.68 29.0533 116.847 28.3267 116.847 27.5ZM123.583 23.82C123.903 23.1933 124.356 22.7067 124.943 22.36C125.543 22.0133 126.269 21.84 127.123 21.84V23.72H126.643C124.603 23.72 123.583 24.8267 123.583 27.04V33H121.763V22.04H123.583V23.82ZM138.976 33.14C138.056 33.14 137.229 32.98 136.496 32.66C135.776 32.3267 135.209 31.8733 134.796 31.3C134.382 30.7133 134.169 30.04 134.156 29.28H136.096C136.162 29.9333 136.429 30.4867 136.896 30.94C137.376 31.38 138.069 31.6 138.976 31.6C139.842 31.6 140.522 31.3867 141.016 30.96C141.522 30.52 141.776 29.96 141.776 29.28C141.776 28.7467 141.629 28.3133 141.336 27.98C141.042 27.6467 140.676 27.3933 140.236 27.22C139.796 27.0467 139.202 26.86 138.456 26.66C137.536 26.42 136.796 26.18 136.236 25.94C135.689 25.7 135.216 25.3267 134.816 24.82C134.429 24.3 134.236 23.6067 134.236 22.74C134.236 21.98 134.429 21.3067 134.816 20.72C135.202 20.1333 135.742 19.68 136.436 19.36C137.142 19.04 137.949 18.88 138.856 18.88C140.162 18.88 141.229 19.2067 142.056 19.86C142.896 20.5133 143.369 21.38 143.476 22.46H141.476C141.409 21.9267 141.129 21.46 140.636 21.06C140.142 20.6467 139.489 20.44 138.676 20.44C137.916 20.44 137.296 20.64 136.816 21.04C136.336 21.4267 136.096 21.9733 136.096 22.68C136.096 23.1867 136.236 23.6 136.516 23.92C136.809 24.24 137.162 24.4867 137.576 24.66C138.002 24.82 138.596 25.0067 139.356 25.22C140.276 25.4733 141.016 25.7267 141.576 25.98C142.136 26.22 142.616 26.6 143.016 27.12C143.416 27.6267 143.616 28.32 143.616 29.2C143.616 29.88 143.436 30.52 143.076 31.12C142.716 31.72 142.182 32.2067 141.476 32.58C140.769 32.9533 139.936 33.14 138.976 33.14ZM156.294 27.1C156.294 27.4467 156.274 27.8133 156.234 28.2H147.474C147.541 29.28 147.907 30.1267 148.574 30.74C149.254 31.34 150.074 31.64 151.034 31.64C151.821 31.64 152.474 31.46 152.994 31.1C153.527 30.7267 153.901 30.2333 154.114 29.62H156.074C155.781 30.6733 155.194 31.5333 154.314 32.2C153.434 32.8533 152.341 33.18 151.034 33.18C149.994 33.18 149.061 32.9467 148.234 32.48C147.421 32.0133 146.781 31.3533 146.314 30.5C145.847 29.6333 145.614 28.6333 145.614 27.5C145.614 26.3667 145.841 25.3733 146.294 24.52C146.747 23.6667 147.381 23.0133 148.194 22.56C149.021 22.0933 149.967 21.86 151.034 21.86C152.074 21.86 152.994 22.0867 153.794 22.54C154.594 22.9933 155.207 23.62 155.634 24.42C156.074 25.2067 156.294 26.1 156.294 27.1ZM154.414 26.72C154.414 26.0267 154.261 25.4333 153.954 24.94C153.647 24.4333 153.227 24.0533 152.694 23.8C152.174 23.5333 151.594 23.4 150.954 23.4C150.034 23.4 149.247 23.6933 148.594 24.28C147.954 24.8667 147.587 25.68 147.494 26.72H154.414ZM162.576 33.18C161.736 33.18 160.983 33.04 160.316 32.76C159.65 32.4667 159.123 32.0667 158.736 31.56C158.35 31.04 158.136 30.4467 158.096 29.78H159.976C160.03 30.3267 160.283 30.7733 160.736 31.12C161.203 31.4667 161.81 31.64 162.556 31.64C163.25 31.64 163.796 31.4867 164.196 31.18C164.596 30.8733 164.796 30.4867 164.796 30.02C164.796 29.54 164.583 29.1867 164.156 28.96C163.73 28.72 163.07 28.4867 162.176 28.26C161.363 28.0467 160.696 27.8333 160.176 27.62C159.67 27.3933 159.23 27.0667 158.856 26.64C158.496 26.2 158.316 25.6267 158.316 24.92C158.316 24.36 158.483 23.8467 158.816 23.38C159.15 22.9133 159.623 22.5467 160.236 22.28C160.85 22 161.55 21.86 162.336 21.86C163.55 21.86 164.53 22.1667 165.276 22.78C166.023 23.3933 166.423 24.2333 166.476 25.3H164.656C164.616 24.7267 164.383 24.2667 163.956 23.92C163.543 23.5733 162.983 23.4 162.276 23.4C161.623 23.4 161.103 23.54 160.716 23.82C160.33 24.1 160.136 24.4667 160.136 24.92C160.136 25.28 160.25 25.58 160.476 25.82C160.716 26.0467 161.01 26.2333 161.356 26.38C161.716 26.5133 162.21 26.6667 162.836 26.84C163.623 27.0533 164.263 27.2667 164.756 27.48C165.25 27.68 165.67 27.9867 166.016 28.4C166.376 28.8133 166.563 29.3533 166.576 30.02C166.576 30.62 166.41 31.16 166.076 31.64C165.743 32.12 165.27 32.5 164.656 32.78C164.056 33.0467 163.363 33.18 162.576 33.18ZM170.085 20.26C169.739 20.26 169.445 20.14 169.205 19.9C168.965 19.66 168.845 19.3667 168.845 19.02C168.845 18.6733 168.965 18.38 169.205 18.14C169.445 17.9 169.739 17.78 170.085 17.78C170.419 17.78 170.699 17.9 170.925 18.14C171.165 18.38 171.285 18.6733 171.285 19.02C171.285 19.3667 171.165 19.66 170.925 19.9C170.699 20.14 170.419 20.26 170.085 20.26ZM170.965 22.04V33H169.145V22.04H170.965ZM178.847 33.18C177.821 33.18 176.887 32.9467 176.047 32.48C175.221 32.0133 174.567 31.3533 174.087 30.5C173.621 29.6333 173.387 28.6333 173.387 27.5C173.387 26.38 173.627 25.3933 174.107 24.54C174.601 23.6733 175.267 23.0133 176.107 22.56C176.947 22.0933 177.887 21.86 178.927 21.86C179.967 21.86 180.907 22.0933 181.747 22.56C182.587 23.0133 183.247 23.6667 183.727 24.52C184.221 25.3733 184.467 26.3667 184.467 27.5C184.467 28.6333 184.214 29.6333 183.707 30.5C183.214 31.3533 182.541 32.0133 181.687 32.48C180.834 32.9467 179.887 33.18 178.847 33.18ZM178.847 31.58C179.501 31.58 180.114 31.4267 180.687 31.12C181.261 30.8133 181.721 30.3533 182.067 29.74C182.427 29.1267 182.607 28.38 182.607 27.5C182.607 26.62 182.434 25.8733 182.087 25.26C181.741 24.6467 181.287 24.1933 180.727 23.9C180.167 23.5933 179.561 23.44 178.907 23.44C178.241 23.44 177.627 23.5933 177.067 23.9C176.521 24.1933 176.081 24.6467 175.747 25.26C175.414 25.8733 175.247 26.62 175.247 27.5C175.247 28.3933 175.407 29.1467 175.727 29.76C176.061 30.3733 176.501 30.8333 177.047 31.14C177.594 31.4333 178.194 31.58 178.847 31.58ZM180.887 18.8L176.627 21.08V19.72L180.887 17.22V18.8ZM192.2 21.84C193.534 21.84 194.614 22.2467 195.44 23.06C196.267 23.86 196.68 25.02 196.68 26.54V33H194.88V26.8C194.88 25.7067 194.607 24.8733 194.06 24.3C193.514 23.7133 192.767 23.42 191.82 23.42C190.86 23.42 190.094 23.72 189.52 24.32C188.96 24.92 188.68 25.7933 188.68 26.94V33H186.86V22.04H188.68V23.6C189.04 23.04 189.527 22.6067 190.14 22.3C190.767 21.9933 191.454 21.84 192.2 21.84Z" fill="white"/>
<path d="M224 10.6667C220.478 10.7117 217.112 12.1308 214.622 14.6217C212.131 17.1125 210.712 20.4778 210.667 24.0001C210.683 26.052 211.173 28.0724 212.098 29.904C213.023 31.7356 214.358 33.329 216 34.5601V34.6667H216.133C218.391 36.3967 221.156 37.3343 224 37.3343C226.844 37.3343 229.609 36.3967 231.867 34.6667H232V34.5601C233.642 33.329 234.977 31.7356 235.902 29.904C236.827 28.0724 237.317 26.052 237.333 24.0001C237.288 20.4778 235.869 17.1125 233.378 14.6217C230.888 12.1308 227.522 10.7117 224 10.6667V10.6667ZM218.76 33.2401C218.955 32.3487 219.448 31.5506 220.159 30.9783C220.869 30.4059 221.754 30.0937 222.667 30.0934H225.333C226.246 30.0937 227.131 30.4059 227.841 30.9783C228.552 31.5506 229.045 32.3487 229.24 33.2401C227.652 34.1745 225.843 34.6672 224 34.6672C222.157 34.6672 220.348 34.1745 218.76 33.2401V33.2401ZM231.48 31.5201C230.973 30.308 230.119 29.2728 229.025 28.5446C227.932 27.8163 226.647 27.4274 225.333 27.4267H222.667C221.353 27.4274 220.068 27.8163 218.975 28.5446C217.881 29.2728 217.027 30.308 216.52 31.5201C215.521 30.5374 214.725 29.3675 214.178 28.0772C213.632 26.7868 213.344 25.4014 213.333 24.0001C213.368 21.1819 214.503 18.4888 216.496 16.4958C218.489 14.5029 221.182 13.368 224 13.3334C226.818 13.368 229.511 14.5029 231.504 16.4958C233.497 18.4888 234.632 21.1819 234.667 24.0001C234.655 25.4014 234.368 26.7868 233.822 28.0772C233.275 29.3675 232.479 30.5374 231.48 31.5201V31.5201Z" fill="white"/>
<path d="M224 15.9999C223.295 15.9835 222.594 16.1103 221.94 16.3725C221.285 16.6347 220.691 17.0269 220.192 17.5255C219.694 18.024 219.301 18.6185 219.039 19.273C218.777 19.9275 218.65 20.6284 218.667 21.3333C218.65 22.0382 218.777 22.739 219.039 23.3935C219.301 24.048 219.694 24.6425 220.192 25.1411C220.691 25.6396 221.285 26.0319 221.94 26.2941C222.594 26.5563 223.295 26.683 224 26.6666C224.705 26.683 225.406 26.5563 226.06 26.2941C226.715 26.0319 227.309 25.6396 227.808 25.1411C228.306 24.6425 228.699 24.048 228.961 23.3935C229.223 22.739 229.35 22.0382 229.333 21.3333C229.35 20.6284 229.223 19.9275 228.961 19.273C228.699 18.6185 228.306 18.024 227.808 17.5255C227.309 17.0269 226.715 16.6347 226.06 16.3725C225.406 16.1103 224.705 15.9835 224 15.9999V15.9999ZM224 23.9999C223.645 24.0171 223.291 23.9599 222.96 23.8319C222.628 23.704 222.327 23.5081 222.076 23.257C221.825 23.0059 221.629 22.705 221.501 22.3737C221.373 22.0424 221.316 21.688 221.333 21.3333C221.316 20.9785 221.373 20.6242 221.501 20.2929C221.629 19.9616 221.825 19.6607 222.076 19.4095C222.327 19.1584 222.628 18.9626 222.96 18.8346C223.291 18.7067 223.645 18.6495 224 18.6666C224.355 18.6495 224.709 18.7067 225.04 18.8346C225.372 18.9626 225.673 19.1584 225.924 19.4095C226.175 19.6607 226.371 19.9616 226.499 20.2929C226.627 20.6242 226.684 20.9785 226.667 21.3333C226.684 21.688 226.627 22.0424 226.499 22.3737C226.371 22.705 226.175 23.0059 225.924 23.257C225.673 23.5081 225.372 23.704 225.04 23.8319C224.709 23.9599 224.355 24.0171 224 23.9999Z" fill="white"/>
</svg>
