<svg width="135" height="55" viewBox="0 0 135 55" fill="none" xmlns="http://www.w3.org/2000/svg">
<path d="M62.056 35.248V37.96H57.592V52H54.232V37.96H49.768V35.248H62.056ZM72.2836 52.168C70.7156 52.168 69.2756 51.8 67.9636 51.064C66.6516 50.328 65.6116 49.312 64.8436 48.016C64.0756 46.704 63.6916 45.224 63.6916 43.576C63.6916 41.944 64.0756 40.48 64.8436 39.184C65.6116 37.872 66.6516 36.848 67.9636 36.112C69.2756 35.376 70.7156 35.008 72.2836 35.008C73.8676 35.008 75.3076 35.376 76.6036 36.112C77.9156 36.848 78.9476 37.872 79.6996 39.184C80.4676 40.48 80.8516 41.944 80.8516 43.576C80.8516 45.224 80.4676 46.704 79.6996 48.016C78.9476 49.312 77.9156 50.328 76.6036 51.064C75.2916 51.8 73.8516 52.168 72.2836 52.168ZM72.2836 49.168C73.2916 49.168 74.1796 48.944 74.9476 48.496C75.7156 48.032 76.3156 47.376 76.7476 46.528C77.1796 45.68 77.3956 44.696 77.3956 43.576C77.3956 42.456 77.1796 41.48 76.7476 40.648C76.3156 39.8 75.7156 39.152 74.9476 38.704C74.1796 38.256 73.2916 38.032 72.2836 38.032C71.2756 38.032 70.3796 38.256 69.5956 38.704C68.8276 39.152 68.2276 39.8 67.7956 40.648C67.3636 41.48 67.1476 42.456 67.1476 43.576C67.1476 44.696 67.3636 45.68 67.7956 46.528C68.2276 47.376 68.8276 48.032 69.5956 48.496C70.3796 48.944 71.2756 49.168 72.2836 49.168ZM86.6633 35.248V45.616C86.6633 46.752 86.9593 47.624 87.5513 48.232C88.1433 48.824 88.9753 49.12 90.0473 49.12C91.1353 49.12 91.9753 48.824 92.5673 48.232C93.1593 47.624 93.4553 46.752 93.4553 45.616V35.248H96.8393V45.592C96.8393 47.016 96.5273 48.224 95.9033 49.216C95.2953 50.192 94.4713 50.928 93.4313 51.424C92.4073 51.92 91.2633 52.168 89.9993 52.168C88.7513 52.168 87.6153 51.92 86.5913 51.424C85.5833 50.928 84.7833 50.192 84.1913 49.216C83.5993 48.224 83.3033 47.016 83.3033 45.592V35.248H86.6633ZM108.726 52L105.03 45.472H103.446V52H100.086V35.248H106.374C107.67 35.248 108.774 35.48 109.686 35.944C110.598 36.392 111.278 37.008 111.726 37.792C112.19 38.56 112.422 39.424 112.422 40.384C112.422 41.488 112.102 42.488 111.462 43.384C110.822 44.264 109.87 44.872 108.606 45.208L112.614 52H108.726ZM103.446 42.952H106.254C107.166 42.952 107.846 42.736 108.294 42.304C108.742 41.856 108.966 41.24 108.966 40.456C108.966 39.688 108.742 39.096 108.294 38.68C107.846 38.248 107.166 38.032 106.254 38.032H103.446V42.952ZM121.245 52.168C120.077 52.168 119.021 51.968 118.077 51.568C117.149 51.168 116.413 50.592 115.869 49.84C115.325 49.088 115.045 48.2 115.029 47.176H118.629C118.677 47.864 118.917 48.408 119.349 48.808C119.797 49.208 120.405 49.408 121.173 49.408C121.957 49.408 122.573 49.224 123.021 48.856C123.469 48.472 123.693 47.976 123.693 47.368C123.693 46.872 123.541 46.464 123.237 46.144C122.933 45.824 122.549 45.576 122.085 45.4C121.637 45.208 121.013 45 120.213 44.776C119.125 44.456 118.237 44.144 117.549 43.84C116.877 43.52 116.293 43.048 115.797 42.424C115.317 41.784 115.077 40.936 115.077 39.88C115.077 38.888 115.325 38.024 115.821 37.288C116.317 36.552 117.013 35.992 117.909 35.608C118.805 35.208 119.829 35.008 120.981 35.008C122.709 35.008 124.109 35.432 125.181 36.28C126.269 37.112 126.869 38.28 126.981 39.784H123.285C123.253 39.208 123.005 38.736 122.541 38.368C122.093 37.984 121.493 37.792 120.741 37.792C120.085 37.792 119.557 37.96 119.157 38.296C118.773 38.632 118.581 39.12 118.581 39.76C118.581 40.208 118.725 40.584 119.013 40.888C119.317 41.176 119.685 41.416 120.117 41.608C120.565 41.784 121.189 41.992 121.989 42.232C123.077 42.552 123.965 42.872 124.653 43.192C125.341 43.512 125.933 43.992 126.429 44.632C126.925 45.272 127.173 46.112 127.173 47.152C127.173 48.048 126.941 48.88 126.477 49.648C126.013 50.416 125.333 51.032 124.437 51.496C123.541 51.944 122.477 52.168 121.245 52.168Z" fill="#E9B44C"/>
<path d="M3.54134 18.2266C3.87183 17.7858 4.30706 17.1892 4.6556 16.7628C5.69943 15.5875 5.83488 15.4334 6.7848 14.5644C7.06652 14.3351 7.40062 14.0592 7.72749 13.7994C5.31657 15.824 5.00956 18.0653 7.22183 19.4503C7.21822 19.4503 7.21822 19.4503 7.21822 19.4539C10.3118 21.3029 17.0913 20.9033 22.4404 18.5347C27.6216 16.2414 29.5341 12.9609 26.9769 11.0115C24.7322 10.5941 22.0558 10.5457 19.2241 10.922L18.9297 10.44L19.1735 9.64092C20.8386 9.49221 22.4206 9.52804 23.7858 9.75917C24.1163 9.81471 24.5516 9.90967 24.8766 9.97775C25.5051 10.13 25.8464 10.2214 26.2564 10.3522C26.6753 10.4758 27.0329 10.5995 27.656 10.8288C28.2664 11.0671 28.53 11.1746 29.0194 11.4165C29.5675 11.6645 30.1 11.9451 30.6141 12.2568C34.6883 14.7991 32.1545 19.4377 24.9651 22.6162C17.7956 25.7838 8.65936 26.2819 4.56531 23.77C4.5635 23.7664 4.55808 23.7628 4.54725 23.7593H4.55447C2.31873 22.3546 2.08395 20.3157 3.54134 18.2266ZM22.1948 35.9999L22.137 33.144L20.0909 30.8865C13.3313 32.4058 6.68728 32.0798 2.99234 29.9208C2.9797 29.9065 2.949 29.8921 2.93635 29.8778C0.845084 28.6003 0.328588 26.952 0.485704 25.1603C-0.00370396 27.7815 -0.0434345 28.7275 0.0269969 30.9707C0.113682 32.3754 0.931769 33.6707 2.57697 34.692L2.58962 34.7063C6.52835 37.1358 14.7345 37.6626 22.1948 35.9999ZM30.7279 39.2697C21.1871 43.0662 9.24628 43.2902 4.05964 39.7767C4.61977 41.1348 5.38191 42.4018 6.32067 43.5357C11.0811 46.7607 22.0413 46.5546 30.7947 43.0698C35.9181 41.0327 39.1507 38.3219 39.9995 35.7813L40.2379 35.0163C40.8032 33.0777 40.9097 31.4634 41 30.0265C40.8971 33.1458 37.1931 36.6933 30.7279 39.2697ZM9.66707 46.5815C9.96685 46.8646 10.9095 48.013 15.6862 49.2815C16.9775 49.5646 20.2282 50.473 26.2329 49.1525L26.269 48.6097L25.794 47.8715C20.2227 49.1794 14.0338 48.7422 9.66707 46.5815ZM23.4536 23.9904L28.5264 27.8048C28.5264 27.8048 29.6118 28.5806 28.5878 29.1253C27.5675 29.6646 24.9471 30.985 24.9471 30.985L22.3592 30.0265L21.0607 30.5998L23.3506 32.5725L23.3687 35.6416L24.7141 35.0485L25.6062 32.456C25.6062 32.456 28.3458 31.4097 29.433 31.0155C30.5256 30.6303 30.3793 31.949 30.3793 31.949L29.8411 38.2395L31.629 37.4512L34.5727 28.964C34.5727 28.964 36.133 28.2115 37.231 27.5504C38.3272 26.8893 38.7029 25.7928 38.7029 25.7928C38.7029 25.7928 37.6337 25.3359 36.4021 25.7032C35.1705 26.0669 33.565 26.7155 33.565 26.7155L25.236 23.2056L23.4536 23.9904ZM12.7209 11.9217L16.1648 14.6432L17.1057 14.5035L15.2311 12.0615C15.2311 12.0615 14.823 11.5562 15.372 11.4362C15.9246 11.3143 17.3224 11.0312 17.3224 11.0312L18.3735 11.8644L19.0814 11.7605L18.2796 10.4955L18.7021 9.09267L18.0177 9.19121L17.2068 10.259C17.2068 10.259 15.7838 10.3916 15.2239 10.4382C14.6605 10.4812 14.9025 9.881 14.9025 9.881L15.9824 7L15.0361 7.13796L12.5439 10.7374C12.5439 10.7374 11.7132 10.8879 11.1118 11.0581C10.5086 11.2265 10.1908 11.6888 10.1908 11.6888C10.1908 11.6888 10.6332 12.0435 11.2563 12.031C11.8848 12.0185 12.7209 11.9217 12.7209 11.9217ZM29.7418 46.8915L27.5133 45.7358L27.0004 45.9132L28.3205 47.085C28.3205 47.085 28.6023 47.3232 28.3061 47.4505C28.0099 47.5759 27.255 47.884 27.255 47.884L26.632 47.6081L26.2618 47.7407L26.7801 48.289L26.7295 49.0898L27.116 48.9572L27.4049 48.3069C27.4049 48.3069 28.1887 48.0757 28.5011 47.9933C28.8118 47.9091 28.7413 48.271 28.7413 48.271L28.447 50L28.9617 49.8226L29.9712 47.5365C29.9712 47.5365 30.4172 47.3627 30.7369 47.2032C31.0565 47.0437 31.183 46.7499 31.183 46.7499C31.183 46.7499 30.8994 46.5958 30.5491 46.6729C30.1969 46.7463 29.7418 46.8915 29.7418 46.8915Z" fill="white"/>
<path d="M70.576 9.152L65.92 26H64.744L60.136 10.832L55.456 26H54.328L49.744 9.152H50.896L54.928 24.488L59.56 9.152H60.76L65.344 24.584L69.4 9.152H70.576ZM82.8091 21.68H74.8171L73.2091 26H72.0331L78.2251 9.536H79.4251L85.5931 26H84.4171L82.8091 21.68ZM82.4731 20.768L78.8251 10.952L75.1531 20.768H82.4731ZM89.3839 25.088H95.6479V26H88.3039V9.152H89.3839V25.088ZM99.1808 9.152V26H98.1008V9.152H99.1808ZM111.972 26L104.22 18.056V26H103.14V9.152H104.22V17.168L111.972 9.152H113.364L105.156 17.6L113.388 26H111.972ZM116.97 9.152V26H115.89V9.152H116.97Z" fill="white"/>
</svg>
